<mxfile host="app.diagrams.net" modified="2023-02-13T14:50:24.862Z" agent="5.0 (Windows NT 10.0; Win64; x64) AppleWebKit/537.36 (KHTML, like Gecko) Chrome/109.0.0.0 Safari/537.36" etag="dnuOr90SkWa-E4NCr4SA" version="20.2.6" type="github">
  <diagram id="rURPzhSKLuviJYRgMVR4" name="Platform Engineering">
    <mxGraphModel dx="1237" dy="683" grid="1" gridSize="10" guides="1" tooltips="1" connect="1" arrows="1" fold="1" page="1" pageScale="1" pageWidth="827" pageHeight="1169" math="0" shadow="0">
      <root>
        <mxCell id="0" />
        <mxCell id="1" parent="0" />
        <mxCell id="Lun-t0q-tkGJY8odKQyi-3" style="edgeStyle=orthogonalEdgeStyle;rounded=0;orthogonalLoop=1;jettySize=auto;html=1;entryX=0;entryY=0.5;entryDx=0;entryDy=0;" edge="1" parent="1" source="Lun-t0q-tkGJY8odKQyi-1" target="Lun-t0q-tkGJY8odKQyi-2">
          <mxGeometry relative="1" as="geometry" />
        </mxCell>
        <mxCell id="Lun-t0q-tkGJY8odKQyi-1" value="&lt;b&gt;Repositorio&lt;br&gt;(git*)&lt;/b&gt;" style="whiteSpace=wrap;html=1;aspect=fixed;" vertex="1" parent="1">
          <mxGeometry x="270" y="124" width="80" height="80" as="geometry" />
        </mxCell>
        <mxCell id="Lun-t0q-tkGJY8odKQyi-10" style="edgeStyle=orthogonalEdgeStyle;rounded=0;orthogonalLoop=1;jettySize=auto;html=1;entryX=0;entryY=0.5;entryDx=0;entryDy=0;" edge="1" parent="1" source="Lun-t0q-tkGJY8odKQyi-2" target="Lun-t0q-tkGJY8odKQyi-9">
          <mxGeometry relative="1" as="geometry" />
        </mxCell>
        <mxCell id="Lun-t0q-tkGJY8odKQyi-18" style="edgeStyle=orthogonalEdgeStyle;rounded=0;orthogonalLoop=1;jettySize=auto;html=1;exitX=1;exitY=0.5;exitDx=0;exitDy=0;entryX=0;entryY=0.5;entryDx=0;entryDy=0;" edge="1" parent="1" source="Lun-t0q-tkGJY8odKQyi-2" target="Lun-t0q-tkGJY8odKQyi-16">
          <mxGeometry relative="1" as="geometry" />
        </mxCell>
        <mxCell id="Lun-t0q-tkGJY8odKQyi-2" value="&lt;b&gt;CI&lt;/b&gt;" style="rounded=0;whiteSpace=wrap;html=1;" vertex="1" parent="1">
          <mxGeometry x="410" y="134" width="120" height="60" as="geometry" />
        </mxCell>
        <mxCell id="Lun-t0q-tkGJY8odKQyi-4" value="Java" style="rounded=0;whiteSpace=wrap;html=1;" vertex="1" parent="1">
          <mxGeometry x="285" y="194" width="50" height="20" as="geometry" />
        </mxCell>
        <mxCell id="Lun-t0q-tkGJY8odKQyi-5" value="AngularJS" style="rounded=0;whiteSpace=wrap;html=1;" vertex="1" parent="1">
          <mxGeometry x="300" y="214" width="80" height="20" as="geometry" />
        </mxCell>
        <mxCell id="Lun-t0q-tkGJY8odKQyi-6" value="" style="rounded=0;whiteSpace=wrap;html=1;" vertex="1" parent="1">
          <mxGeometry x="410" y="124" width="120" height="10" as="geometry" />
        </mxCell>
        <mxCell id="Lun-t0q-tkGJY8odKQyi-8" style="edgeStyle=orthogonalEdgeStyle;rounded=0;orthogonalLoop=1;jettySize=auto;html=1;entryX=0;entryY=0.813;entryDx=0;entryDy=0;entryPerimeter=0;" edge="1" parent="1" source="Lun-t0q-tkGJY8odKQyi-7" target="Lun-t0q-tkGJY8odKQyi-1">
          <mxGeometry relative="1" as="geometry" />
        </mxCell>
        <mxCell id="Lun-t0q-tkGJY8odKQyi-7" value="SDKs" style="rounded=0;whiteSpace=wrap;html=1;" vertex="1" parent="1">
          <mxGeometry x="190" y="124" width="60" height="130" as="geometry" />
        </mxCell>
        <mxCell id="Lun-t0q-tkGJY8odKQyi-20" style="edgeStyle=orthogonalEdgeStyle;rounded=0;orthogonalLoop=1;jettySize=auto;html=1;entryX=0;entryY=0.5;entryDx=0;entryDy=0;" edge="1" parent="1" source="Lun-t0q-tkGJY8odKQyi-9" target="Lun-t0q-tkGJY8odKQyi-19">
          <mxGeometry relative="1" as="geometry" />
        </mxCell>
        <mxCell id="Lun-t0q-tkGJY8odKQyi-9" value="&lt;b&gt;Artefatos&lt;/b&gt;" style="whiteSpace=wrap;html=1;aspect=fixed;" vertex="1" parent="1">
          <mxGeometry x="572" y="110" width="108" height="108" as="geometry" />
        </mxCell>
        <mxCell id="Lun-t0q-tkGJY8odKQyi-16" value="" style="swimlane;" vertex="1" parent="1">
          <mxGeometry x="570" y="264" width="110" height="170" as="geometry" />
        </mxCell>
        <mxCell id="Lun-t0q-tkGJY8odKQyi-25" style="edgeStyle=orthogonalEdgeStyle;rounded=0;orthogonalLoop=1;jettySize=auto;html=1;entryX=0;entryY=0.5;entryDx=0;entryDy=0;" edge="1" parent="1" source="Lun-t0q-tkGJY8odKQyi-19" target="Lun-t0q-tkGJY8odKQyi-24">
          <mxGeometry relative="1" as="geometry" />
        </mxCell>
        <mxCell id="Lun-t0q-tkGJY8odKQyi-19" value="CD" style="rounded=0;whiteSpace=wrap;html=1;" vertex="1" parent="1">
          <mxGeometry x="760" y="144" width="120" height="40" as="geometry" />
        </mxCell>
        <mxCell id="Lun-t0q-tkGJY8odKQyi-21" value="&lt;b&gt;Container&lt;br&gt;&amp;nbsp;Registry&lt;/b&gt;" style="text;html=1;align=center;verticalAlign=middle;resizable=0;points=[];autosize=1;strokeColor=none;fillColor=none;" vertex="1" parent="1">
          <mxGeometry x="580" y="324" width="80" height="40" as="geometry" />
        </mxCell>
        <mxCell id="Lun-t0q-tkGJY8odKQyi-26" style="edgeStyle=orthogonalEdgeStyle;rounded=0;orthogonalLoop=1;jettySize=auto;html=1;entryX=0;entryY=0.5;entryDx=0;entryDy=0;" edge="1" parent="1" source="Lun-t0q-tkGJY8odKQyi-23" target="Lun-t0q-tkGJY8odKQyi-24">
          <mxGeometry relative="1" as="geometry" />
        </mxCell>
        <mxCell id="Lun-t0q-tkGJY8odKQyi-23" value="CPU&lt;br&gt;Memória&lt;br&gt;Otimização" style="shape=parallelogram;perimeter=parallelogramPerimeter;whiteSpace=wrap;html=1;fixedSize=1;" vertex="1" parent="1">
          <mxGeometry x="760" y="224" width="120" height="60" as="geometry" />
        </mxCell>
        <mxCell id="Lun-t0q-tkGJY8odKQyi-24" value="VM&lt;br&gt;Containers (K8s)" style="whiteSpace=wrap;html=1;aspect=fixed;" vertex="1" parent="1">
          <mxGeometry x="980" y="164" width="100" height="100" as="geometry" />
        </mxCell>
      </root>
    </mxGraphModel>
  </diagram>
</mxfile>
